<svg width="132" height="34" viewBox="0 0 132 34" fill="none" xmlns="http://www.w3.org/2000/svg">
<path d="M21.3587 7.00611C22.1467 6.51149 22.672 5.61408 22.672 4.60362C22.672 3.042 21.4347 1.77716 19.9071 1.77716C18.3795 1.77716 17.1423 3.042 17.1423 4.60362C17.1423 5.62115 17.6676 6.51149 18.4556 7.00611L14.4949 15.1039C13.8659 16.39 12.2346 16.7574 11.1356 15.86L4.97679 10.8218C5.3224 10.3484 5.52977 9.76193 5.52977 9.12596C5.52977 7.56434 4.29248 6.2995 2.76489 6.2995C1.23728 6.2995 0 7.56434 0 9.12596C0 10.6876 1.23728 11.9524 2.76489 11.9524C2.7787 11.9524 2.79945 11.9524 2.81326 11.9524L5.97214 29.7167C6.35232 31.8649 8.18404 33.4335 10.3268 33.4335H29.4875C31.6233 33.4335 33.455 31.872 33.8421 29.7167L37.0009 11.9524C37.0148 11.9524 37.0357 11.9524 37.0494 11.9524C38.5769 11.9524 39.8143 10.6876 39.8143 9.12596C39.8143 7.56434 38.5769 6.2995 37.0494 6.2995C35.5218 6.2995 34.2844 7.56434 34.2844 9.12596C34.2844 9.76193 34.4919 10.3484 34.8375 10.8218L28.6788 15.86C27.5798 16.7574 25.9484 16.39 25.3195 15.1039L21.3587 7.00611Z" fill="white"/>
<path d="M54.1564 8.33088L54.1996 9.98826C53.6815 10.0958 53.197 10.1789 52.7461 10.2376C52.2952 10.2963 51.8635 10.3256 51.451 10.3256C50.6355 10.3256 49.9831 10.2229 49.4938 10.0176C49.0045 9.81225 48.6208 9.48469 48.3426 9.0349C48.0643 8.58511 47.8725 8.0571 47.7669 7.45086C47.6614 6.84462 47.6086 6.08194 47.6086 5.1628C47.6086 4.19478 47.6662 3.3832 47.7813 2.72807C47.906 2.07294 48.1123 1.54493 48.4001 1.14403C48.6879 0.733352 49.0717 0.440012 49.5514 0.264007C50.0311 0.0880025 50.6307 0 51.3502 0C52.1849 0 53.1395 0.132004 54.214 0.396011L54.1564 2.00939C53.2066 1.86272 52.4199 1.78938 51.7963 1.78938C51.4797 1.78938 51.2111 1.80894 50.9905 1.84805C50.7794 1.88716 50.5971 1.95561 50.4436 2.05339C50.2997 2.14139 50.1798 2.2685 50.0838 2.43473C49.9975 2.59118 49.9207 2.78674 49.8536 3.02141C49.7864 3.26586 49.7337 3.58854 49.6953 3.98944C49.6665 4.39034 49.6521 4.88413 49.6521 5.47081C49.6521 6.04771 49.6809 6.53173 49.7385 6.92285C49.796 7.31397 49.8968 7.63175 50.0407 7.87621C50.1942 8.11088 50.4004 8.28199 50.6595 8.38955C50.9185 8.48733 51.2447 8.53622 51.638 8.53622C52.041 8.53622 52.4487 8.52156 52.8612 8.49222C53.2738 8.45311 53.7055 8.39933 54.1564 8.33088ZM64.028 6.80551H62.114V10.1496H60.1281V0.176005H63.9272C66.2297 0.176005 67.381 1.27114 67.381 3.46142C67.381 4.7619 66.9013 5.72015 65.9419 6.33617L67.3378 10.1496H65.1648L64.028 6.80551ZM62.114 5.0748H63.956C64.4261 5.0748 64.7763 4.92813 65.0065 4.63479C65.2368 4.34145 65.3519 3.95521 65.3519 3.47609C65.3519 2.99697 65.2272 2.61562 64.9777 2.33206C64.7379 2.0485 64.3877 1.90672 63.9272 1.90672H62.114V5.0748ZM79.7011 10.1496H73.3692V0.176005H79.7011V1.93605H75.3551V4.26811H78.8377V5.99882H75.3551V8.38955H79.7011V10.1496ZM86.8204 10.1496H84.8345L87.0363 0.176005H90.8067L93.0084 10.1496H91.0225L90.634 8.34555H87.209L86.8204 10.1496ZM89.2669 1.84805H88.5761L87.5831 6.5855H90.2598L89.2669 1.84805ZM100.37 1.96538H97.7511V0.176005H104.946V1.96538H102.356V10.1496H100.37V1.96538ZM114.147 10.3256C113.399 10.3256 112.766 10.2229 112.248 10.0176C111.739 9.81225 111.322 9.50425 110.996 9.09357C110.679 8.67311 110.449 8.14021 110.305 7.49486C110.161 6.84951 110.089 6.08682 110.089 5.2068C110.089 4.32678 110.161 3.56409 110.305 2.91874C110.449 2.26361 110.679 1.72093 110.996 1.2907C111.322 0.850689 111.739 0.528014 112.248 0.322675C112.766 0.107559 113.399 0 114.147 0C114.896 0 115.524 0.107559 116.033 0.322675C116.551 0.528014 116.968 0.850689 117.285 1.2907C117.611 1.72093 117.846 2.26361 117.99 2.91874C118.134 3.56409 118.206 4.32678 118.206 5.2068C118.206 5.95971 118.148 6.65395 118.033 7.28952C117.927 7.91532 117.721 8.45311 117.414 8.9029C117.117 9.35269 116.704 9.7047 116.177 9.95893C115.658 10.2034 114.982 10.3256 114.147 10.3256ZM112.564 7.7882C112.843 8.30644 113.37 8.56556 114.147 8.56556C114.541 8.56556 114.862 8.50689 115.112 8.38955C115.371 8.26244 115.577 8.06688 115.73 7.80287C115.894 7.52909 116.004 7.18196 116.061 6.76151C116.129 6.33128 116.162 5.81304 116.162 5.2068C116.162 4.60056 116.129 4.08233 116.061 3.6521C115.994 3.22186 115.884 2.86496 115.73 2.5814C115.577 2.29784 115.371 2.0925 115.112 1.96538C114.853 1.82849 114.531 1.76005 114.147 1.76005C113.764 1.76005 113.442 1.82849 113.183 1.96538C112.924 2.0925 112.718 2.29784 112.564 2.5814C112.411 2.86496 112.301 3.22186 112.233 3.6521C112.166 4.08233 112.133 4.60056 112.133 5.2068C112.133 6.4095 112.277 7.26997 112.564 7.7882ZM128.126 6.80551H126.212V10.1496H124.226V0.176005H128.025C130.327 0.176005 131.479 1.27114 131.479 3.46142C131.479 4.7619 130.999 5.72015 130.04 6.33617L131.435 10.1496H129.262L128.126 6.80551ZM126.212 5.0748H128.054C128.524 5.0748 128.874 4.92813 129.104 4.63479C129.334 4.34145 129.45 3.95521 129.45 3.47609C129.45 2.99697 129.325 2.61562 129.075 2.33206C128.836 2.0485 128.485 1.90672 128.025 1.90672H126.212V5.0748Z" fill="white"/>
<path d="M49.6857 31.9057L47.8437 15.1266H51.5277L52.8862 27.3765L57.4682 23.786V15.1266H61.1522V23.8095L65.6882 27.3765L67.0697 15.1266H70.7537L68.9117 31.9057H65.8263L59.3102 26.5317L52.7711 31.9057H49.6857ZM70.5162 31.9057L77.9303 15.1266H83.6175L91.0316 31.9057H87.0253L85.4596 28.3622H76.0883L74.5226 31.9057H70.5162ZM77.4238 25.3114H84.1241L80.9236 18.06H80.6243L77.4238 25.3114ZM92.186 31.9057V15.1266H105.978C107.682 15.1266 109.002 15.5647 109.938 16.4408C110.89 17.3169 111.366 18.6467 111.366 20.4302C111.366 21.9478 111.021 23.1368 110.33 23.9972C109.639 24.8577 108.657 25.3975 107.383 25.6165L111.182 31.9057H106.991L103.468 25.7338H95.87V31.9057H92.186ZM105.541 18.1774H95.87V22.6596L105.541 22.6831C106.216 22.6831 106.73 22.511 107.083 22.1668C107.452 21.8226 107.636 21.2438 107.636 20.4302C107.636 19.601 107.452 19.0222 107.083 18.6936C106.73 18.3495 106.216 18.1774 105.541 18.1774ZM112.912 32.0231V28.9723L126.151 28.9958C126.826 28.9958 127.341 28.8393 127.694 28.5264C128.062 28.1979 128.246 27.6738 128.246 26.9541C128.246 26.2345 128.062 25.7182 127.694 25.4053C127.341 25.0767 126.826 24.9125 126.151 24.9125H117.908C116.204 24.9125 114.876 24.4979 113.925 23.6687C112.988 22.8239 112.52 21.5879 112.52 19.9609C112.52 18.3338 112.988 17.1057 113.925 16.2765C114.876 15.4317 116.204 15.0093 117.908 15.0093H130.848V18.06L118.299 18.0366C117.639 18.0366 117.125 18.193 116.757 18.5059C116.388 18.8032 116.204 19.2881 116.204 19.9609C116.204 20.6336 116.388 21.1264 116.757 21.4393C117.125 21.7366 117.639 21.8852 118.299 21.8852H126.542C128.246 21.8852 129.566 22.3154 130.503 23.1759C131.454 24.0207 131.93 25.2801 131.93 26.9541C131.93 28.6125 131.454 29.8719 130.503 30.7324C129.566 31.5928 128.246 32.0231 126.542 32.0231H112.912Z" fill="white"/>
</svg>
